<?xml version="1.0" encoding="UTF-8"?>
<svg id="Camada_2" data-name="Camada 2" xmlns="http://www.w3.org/2000/svg" viewBox="0 0 194.06 216.64">
  <defs>
    <style>
      .cls-1 {
        fill: #ffe0d0;
      }
    </style>
  </defs>
  <g id="Camada_1-2" data-name="Camada 1">
    <g>
      <path class="cls-1" d="M79.91,97.62c8.51.83,15.75,8.79,15.85,17.34,0,.8-.62,3.66-.37,4.06,13.57,4.53,20.22,20.32,13.44,33.11,11.45,11.19,6.49,31.11-8.86,35.54,2.4,10.69-6.37,20.2-17.27,18.45-1.59,13.75-21.35,13.95-22.36-.44v-101.67c.39-3.32,2.68-5.58,5.83-6.4,4.41.31,9.4-.42,13.74,0Z"/>
      <path class="cls-1" d="M15.14,187.91c-15.3-4.46-20.36-24.35-8.86-35.54-6.76-12.79-.17-28.61,13.44-33.11-.17-2.32-.43-4.24-.07-6.58.97-6.19,5.56-11.84,11.52-13.85,3.81-1.29,13.31-1.43,17.41-.99,3.34.36,5.99,3.31,6.18,6.62v101.68c-1.36,13.86-20.67,14.02-22.35.2-10.86,1.75-19.68-7.8-17.27-18.45Z"/>
      <path class="cls-1" d="M112.08.09c5.95.58,11.02,6.15,11.08,12.13,0,.56-.44,2.56-.26,2.84,9.49,3.16,14.14,14.21,9.4,23.16,8.01,7.83,4.54,21.76-6.2,24.85,1.68,7.48-4.46,14.13-12.08,12.9-1.11,9.61-14.93,9.76-15.64-.31V4.57c.27-2.32,1.88-3.9,4.08-4.48,3.09.22,6.57-.29,9.61,0Z"/>
      <path class="cls-1" d="M66.78,63.24c-10.7-3.12-14.24-17.03-6.2-24.85-4.73-8.95-.12-20.01,9.4-23.15-.12-1.62-.3-2.97-.05-4.6.68-4.33,3.89-8.28,8.06-9.69,2.66-.9,9.31-1,12.18-.69,2.34.25,4.19,2.31,4.32,4.63v71.11c-.95,9.69-14.45,9.81-15.63.14-7.6,1.23-13.76-5.46-12.08-12.9Z"/>
      <path class="cls-1" d="M171.82,67.5c5.38.52,9.95,5.55,10.01,10.96,0,.51-.39,2.31-.23,2.57,8.57,2.86,12.78,12.84,8.49,20.92,7.24,7.07,4.1,19.65-5.6,22.45,1.52,6.75-4.03,12.76-10.91,11.65-1.01,8.68-13.49,8.82-14.12-.28v-64.23c.24-2.1,1.69-3.52,3.68-4.04,2.79.2,5.94-.27,8.68,0Z"/>
      <path class="cls-1" d="M130.9,124.54c-9.66-2.82-12.86-15.39-5.6-22.45-4.27-8.08-.11-18.07,8.49-20.92-.11-1.47-.27-2.68-.04-4.15.61-3.91,3.51-7.48,7.28-8.75,2.41-.81,8.41-.91,11-.62,2.11.23,3.78,2.09,3.9,4.18v64.24c-.86,8.75-13.06,8.86-14.12.13-6.86,1.11-12.43-4.93-10.91-11.65Z"/>
    </g>
  </g>
</svg>