<?xml version="1.0" encoding="UTF-8"?>
<svg id="Camada_2" data-name="Camada 2" xmlns="http://www.w3.org/2000/svg" viewBox="0 0 759.89 145.22">
  <defs>
    <style>
      .cls-1 {
        fill: #f2f2f2;
      }

      .cls-2 {
        fill: #6d6d6d;
      }

      .cls-3 {
        fill: #69bc8f;
      }
    </style>
  </defs>
  <g id="Camada_1-2" data-name="Camada 1">
    <g>
      <path class="cls-3" d="M45.77,141.09C19.08,131.42,0,105.84,0,75.81,0,53,11.52,31.26,30.36,18.41c6.83-4.66,14.22-7.91,22.26-9.59,4.58-.96,8.93-4.36,13.47-5.87,5.05-1.68,10.32-2.67,15.64-2.91,2.21-.1,4.49-.06,6.51.82s3.74,2.8,3.76,5.01c.02,1.78-1.05,3.44-2.47,4.53s-3.14,1.67-4.86,2.15c-11.5,3.19-24.08,2.67-34.75-2.74,6.22-1.83,12.69-3.42,19.49-3.42,38.33,0,69.41,31.08,69.41,69.41s-31.08,69.41-69.41,69.41c-8.3,0-16.26-1.46-23.64-4.13Z"/>
      <path class="cls-1" d="M73.8,22.31c-.37.36-.81.67-1.32.91-3.72,1.45-9.25,4.59-8.62,8.68.47,2.84,3.08,5.47,6.22,6.34,4.14,1.19,6.26-1.13,5.17-4.54-.7-1.61-3.2-1.57-4.87-1.18-.15.03-.29-.05-.33-.18-.03-.12.03-.23.15-.28,1.26-.52,2.74-.83,4.17-.58,2.36.42,3.29,2.76,3.35,4.61.34,2.44-1.85,4.92-4.54,5.44-9.52,2.07-19.09-7.48-15.3-15.74.44-1,.96-1.93,1.55-2.8-25.96,4.53-45.65,26.4-45.65,52.71,0,29.59,24.91,53.59,55.63,53.59s55.63-23.99,55.63-53.59-22.57-51.25-51.24-53.4ZM61.63,77.54c-2.46-.43-4.3-1.02-5.92-1.33-5.14-1.16-7.96.48-13.4,1.33-.3.05-.59-.16-.57-.43.08-4.45,4.2-11.51,9.12-11.88,5.68-.63,11.13,6.79,11.34,11.88.02.27-.28.5-.57.43ZM99.09,77.54c-2.46-.43-4.3-1.02-5.92-1.33-5.14-1.16-7.96.48-13.4,1.33-.3.05-.59-.16-.57-.43.08-4.45,4.2-11.51,9.12-11.88,5.68-.63,11.13,6.79,11.34,11.88.02.27-.28.5-.57.43Z"/>
    </g>
    <g>
      <path class="cls-2" d="M212.96,102.06h-21.03v-56.17h21.03c18.38,0,29.85,12.6,29.85,28.09s-11.48,28.09-29.85,28.09ZM212.96,55.76h-8.59v36.43h8.59c10.67,0,17.33-8.19,17.33-18.22s-6.66-18.22-17.33-18.22Z"/>
      <path class="cls-2" d="M271.22,59.13c12.04,0,22.63,8.67,22.63,21.43s-10.59,21.51-22.63,21.51-22.63-8.59-22.63-21.51,10.67-21.43,22.63-21.43ZM271.22,91.79c5.94,0,10.99-4.82,10.99-11.24s-5.06-11.15-10.99-11.15-10.99,4.73-10.99,11.15,5.14,11.24,10.99,11.24Z"/>
      <path class="cls-2" d="M322.01,59.21c4.25,0,9.79.88,16.85,6.1l-5.46,8.75c-4.01-3.61-8.75-4.09-10.83-4.09-6.98,0-11.64,4.41-11.64,10.67s4.65,10.67,11.64,10.67c2.09,0,6.82-.48,10.83-4.09l5.46,8.75c-7.06,5.22-12.6,6.1-16.85,6.1-14.12,0-23.03-9.23-23.03-21.43s8.91-21.43,23.03-21.43Z"/>
      <path class="cls-2" d="M360.61,60.01h11.4v9.39h-11.4v19.26c0,1.77.72,3.61,3.05,3.61s3.13-1.93,3.13-3.85c0-1.2-.32-2.89-.56-3.53h9.47c.72,1.52.96,3.45.96,4.9,0,6.1-4.01,12.28-13.72,12.28-7.22,0-14.28-2.57-14.28-14.53v-18.14h-6.18v-9.39h7.06l1.85-10.11h9.23v10.11Z"/>
      <path class="cls-2" d="M402.65,59.13c12.04,0,22.63,8.67,22.63,21.43s-10.59,21.51-22.63,21.51-22.63-8.59-22.63-21.51,10.67-21.43,22.63-21.43ZM402.65,91.79c5.94,0,10.99-4.82,10.99-11.24s-5.06-11.15-10.99-11.15-10.99,4.73-10.99,11.15,5.14,11.24,10.99,11.24Z"/>
      <path class="cls-2" d="M444.62,69.88c1.36-7.46,7.7-9.87,11.31-9.87,1.36,0,1.77.08,3.05.32v11.8c-1.69-.4-3.85-.56-5.06-.56-4.49,0-8.99,2.65-8.99,8.1v22.39h-11.96v-41.17h11.64v8.99Z"/>
      <g>
        <path class="cls-2" d="M511.94,80.31c1.44,5.94,3.69,10.75,9.31,10.75,1.93,0,4.17-.96,5.7-2.41l4.41,8.59c-3.69,2.89-6.74,4.82-12.52,4.82-13.32,0-17.41-14.93-18.06-20.87h-7.46v19.98h-12.36v-56.17h24.96c11.56,0,17.9,8.59,17.9,18.46,0,7.94-4.49,14.52-11.88,16.85ZM504.31,71.24c4.41,0,7.06-3.21,7.06-7.86s-2.65-7.94-7.06-7.94h-10.99v15.81h10.99Z"/>
        <path class="cls-2" d="M575.89,93.95c-5.86,6.42-13.64,8.11-19.18,8.11-15.25,0-23.59-9.55-23.59-21.27s9.47-21.67,22.71-21.67c11.4,0,22.31,7.86,22.31,24.24h-33.14c.24,5.14,4.98,8.91,12.6,8.91,4.25,0,8.51-2.17,11.4-4.9l6.9,6.58ZM545.24,76.14h20.62c-.8-5.3-6.18-7.3-10.19-7.3s-8.99,1.77-10.43,7.3Z"/>
        <path class="cls-2" d="M609.99,102.06c-6.02,0-9.95-2.65-12.92-6.9v6.02h-11.96v-58.02h11.96v22.47c2.81-3.77,7.62-6.5,13.16-6.5,12.84,0,19.82,9.71,19.82,21.27s-7.54,21.67-20.06,21.67ZM607.83,68.84c-6.5,0-11.07,4.65-11.07,12.28s4.9,11.24,10.75,11.24c6.58,0,10.59-5.3,10.59-11.88s-3.69-11.64-10.27-11.64Z"/>
        <path class="cls-2" d="M657.98,59.13c12.04,0,22.63,8.67,22.63,21.43s-10.59,21.51-22.63,21.51-22.63-8.59-22.63-21.51,10.67-21.43,22.63-21.43ZM657.98,91.79c5.94,0,10.99-4.82,10.99-11.24s-5.06-11.15-10.99-11.15-10.99,4.73-10.99,11.15,5.14,11.24,10.99,11.24Z"/>
        <path class="cls-2" d="M699.94,69c1.36-7.46,7.7-9.87,11.31-9.87,1.36,0,1.77.08,3.05.32v11.8c-1.69-.4-3.85-.56-5.06-.56-4.49,0-8.99,2.65-8.99,8.1v22.39h-11.96v-41.17h11.64v8.99Z"/>
        <path class="cls-2" d="M720.48,60.01h11.96v5.62c3.45-4.81,7.78-6.5,12.76-6.5,11.56,0,14.69,9.23,14.69,19.66v22.39h-11.96v-22.15c0-5.7-2.09-10.03-7.62-10.03s-7.86,4.41-7.86,10.11v22.07h-11.96v-41.17Z"/>
      </g>
    </g>
  </g>
</svg>